HIERARCHY
ROOT Hips
{
 OFFSET 0.000000 0.000000 0.000000
 CHANNELS 6 Xposition Yposition Zposition Yrotation Xrotation Zrotation
 JOINT Chest
 {
  OFFSET 0.000000 9.585900 0.002600
  CHANNELS 3 Yrotation Xrotation Zrotation
  JOINT Chest2
  {
   OFFSET 0.000000 9.601200 -0.005300
   CHANNELS 3 Yrotation Xrotation Zrotation
   JOINT Chest3
   {
    OFFSET 0.000000 9.561800 0.000000
    CHANNELS 3 Yrotation Xrotation Zrotation
    JOINT Chest4
    {
     OFFSET 0.000000 9.552100 0.000000
     CHANNELS 3 Yrotation Xrotation Zrotation
     JOINT Neck
     {
      OFFSET 0.000000 14.453000 0.000000
      CHANNELS 3 Yrotation Xrotation Zrotation
      JOINT Head
      {
       OFFSET 0.000000 8.936500 -0.011300
       CHANNELS 3 Yrotation Xrotation Zrotation
       End Site
       {
        OFFSET 0.000000 17.073600 -0.006000
       }
      }
     }
     JOINT RightCollar
     {
      OFFSET -2.921100 9.558500 0.000000
      CHANNELS 3 Yrotation Xrotation Zrotation
      JOINT RightShoulder
      {
       OFFSET -13.519700 0.000000 0.000000
       CHANNELS 3 Yrotation Xrotation Zrotation
       JOINT RightElbow
       {
        OFFSET 0.000000 -29.696600 0.000000
        CHANNELS 3 Yrotation Xrotation Zrotation
        JOINT RightWrist
        {
         OFFSET 0.000000 -24.004700 0.000000
         CHANNELS 3 Yrotation Xrotation Zrotation
         End Site
         {
          OFFSET 0.000000 -17.728500 0.000000
         }
        }
       }
      }
     }
     JOINT LeftCollar
     {
      OFFSET 2.921100 9.558500 0.000000
      CHANNELS 3 Yrotation Xrotation Zrotation
      JOINT LeftShoulder
      {
       OFFSET 13.519700 0.000000 0.000000
       CHANNELS 3 Yrotation Xrotation Zrotation
       JOINT LeftElbow
       {
        OFFSET 0.000000 -29.696600 0.000000
        CHANNELS 3 Yrotation Xrotation Zrotation
        JOINT LeftWrist
        {
         OFFSET 0.000000 -24.004700 0.000000
         CHANNELS 3 Yrotation Xrotation Zrotation
         End Site
         {
          OFFSET 0.000000 -17.728500 0.000000
         }
        }
       }
      }
     }
    }
   }
  }
 }
 JOINT RightHip
 {
  OFFSET -7.771700 -0.012900 -0.001300
  CHANNELS 3 Yrotation Xrotation Zrotation
  JOINT RightKnee
  {
   OFFSET 0.000000 -40.869800 0.001200
   CHANNELS 3 Yrotation Xrotation Zrotation
   JOINT RightAnkle
   {
    OFFSET 0.000000 -39.717900 0.002100
    CHANNELS 3 Yrotation Xrotation Zrotation
    JOINT RightToe
    {
     OFFSET 0.000000 -4.965400 11.033500
     CHANNELS 3 Yrotation Xrotation Zrotation
     End Site
     {
      OFFSET 0.000000 -1.423100 5.872300
     }
    }
   }
  }
 }
 JOINT LeftHip
 {
  OFFSET 7.771700 -0.012900 -0.001300
  CHANNELS 3 Yrotation Xrotation Zrotation
  JOINT LeftKnee
  {
   OFFSET 0.000000 -40.869800 0.001200
   CHANNELS 3 Yrotation Xrotation Zrotation
   JOINT LeftAnkle
   {
    OFFSET 0.000000 -39.717900 0.002100
    CHANNELS 3 Yrotation Xrotation Zrotation
    JOINT LeftToe
    {
     OFFSET 0.000000 -4.965400 11.033500
     CHANNELS 3 Yrotation Xrotation Zrotation
     End Site
     {
      OFFSET 0.000000 -1.423100 5.872300
     }
    }
   }
  }
 }
}
MOTION
Frames: 8
Frame Time: 0.008333
0.000000 85.388000 0.000000 0.000000 -5.767877 0.000000 0.000000 11.653817 0.000000 0.000000 -5.885947 0.000000 0.000000 -0.000000 0.000000 0.000000 -0.000000 0.000000 0.000000 12.528835 0.000000 0.000000 0.711642 0.000000 0.000000 -0.000000 0.000000 0.000000 0.000000 -90.000000 0.000000 -2.309062 0.000000 0.000000 2.309062 0.000000 0.000000 -0.000000 0.000000 0.000000 -0.000000 90.000000 0.000000 -2.309062 0.000000 0.000000 2.309062 0.000000 0.000000 8.520406 0.000000 0.000000 1.905762 0.000000 -0.000000 -4.658285 0.000000 0.000000 -0.000000 0.000000 0.000000 8.520406 0.000000 0.000000 1.905762 0.000000 -0.000000 -4.658285 0.000000 0.000000 -0.000000 0.000000
-44.906068 50.661913 2.629950 164.111250 -5.954166 -0.847566 3.221759 5.883547 0.763614 0.127057 0.236222 -0.009778 0.220816 0.421028 -0.009349 2.979535 5.682826 0.017281 2.477958 18.795014 -0.027471 4.545030 -0.849949 -0.822086 2.217829 6.172521 0.566175 -5.853365 -11.772560 -6.942113 26.872670 -81.589357 -7.650999 1.555620 1.252646 -27.271692 -5.840801 2.842993 0.192382 19.553240 -5.867172 0.193411 -2.135323 -84.363656 -17.869149 -1.588995 8.949558 9.970130 -5.764425 -74.417470 1.333897 -116.112270 81.938739 -114.998781 -2.241316 -14.816864 0.421152 -0.329425 0.806655 -0.148980 -16.394070 -77.617869 31.599159 109.869609 79.188719 106.344785 -16.921220 -19.979061 0.282502 -0.287889 -1.128702 -0.143300
-44.904839 50.662197 2.631408 164.118635 -5.946274 -0.855465 3.214205 5.877098 0.772370 0.126260 0.237305 -0.007597 0.220368 0.425369 -0.004530 2.979271 5.678133 0.010847 2.481259 18.798671 -0.028039 4.565474 -0.832634 -0.834139 2.223926 6.179391 0.568975 -5.862762 -11.769125 -6.943823 26.907883 -81.599207 -7.681768 1.556718 1.253554 -27.269481 -5.839120 2.857714 0.194406 19.555387 -5.873703 0.187628 -2.112597 -84.363737 -17.890897 -1.593548 8.953441 9.968612 -5.787461 -74.423660 1.352680 -116.099384 81.933794 -114.981553 -2.240021 -14.815549 0.420448 -0.328933 0.804611 -0.148561 -16.433997 -77.625997 31.636623 109.846587 79.188322 106.317338 -16.899592 -19.960508 0.276725 -0.267017 -1.115522 -0.132749
-44.904886 50.662615 2.631636 164.118364 -5.942510 -0.853444 3.213307 5.875492 0.772204 0.125451 0.239347 -0.005350 0.224452 0.426124 -0.004419 2.975716 5.676271 0.009450 2.493708 18.813919 -0.024973 4.556653 -0.846512 -0.839460 2.230526 6.184176 0.570712 -5.873933 -11.767899 -6.941725 26.920049 -81.606106 -7.682282 1.560226 1.256884 -27.272104 -5.837988 2.857351 0.191745 19.555569 -5.873823 0.187912 -2.121371 -84.358138 -17.878747 -1.598985 8.956750 9.965401 -5.768286 -74.426329 1.335872 -116.091227 81.931573 -114.969624 -2.244498 -14.819261 0.419947 -0.327248 0.808033 -0.147090 -16.420916 -77.632203 31.631204 109.843572 79.193011 106.311007 -16.907500 -19.939205 0.273750 -0.266558 -1.090431 -0.120853
-44.905194 50.663180 2.630712 164.125089 -5.943567 -0.849343 3.210183 5.881673 0.772862 0.125441 0.239581 -0.005372 0.223678 0.425834 -0.004555 2.975993 5.679165 0.010142 2.494067 18.813570 -0.028980 4.561340 -0.838984 -0.843927 2.231578 6.180311 0.573572 -5.879814 -11.750090 -6.939345 27.013279 -81.616687 -7.771414 1.564351 1.252403 -27.284151 -5.839850 2.861361 0.185921 19.554704 -5.871039 0.190070 -2.143574 -84.362216 -17.860798 -1.608382 8.982955 9.966858 -5.752411 -74.425077 1.313749 -116.117529 81.931500 -114.995962 -2.246891 -14.822964 0.419720 -0.328313 0.808236 -0.145759 -16.375337 -77.635163 31.585564 109.832742 79.197567 106.302184 -16.926804 -19.925977 0.279010 -0.269019 -1.086940 -0.117790
-44.905585 50.663762 2.629586 164.130380 -5.944171 -0.845065 3.209139 5.891835 0.777906 0.125480 0.239749 -0.004987 0.220968 0.419961 -0.009797 2.977422 5.682349 0.011378 2.490407 18.809575 -0.034558 4.574063 -0.827285 -0.851462 2.229769 6.181884 0.572525 -5.882091 -11.753174 -6.941011 26.999670 -81.616634 -7.755682 1.554511 1.254156 -27.282115 -5.840742 2.866334 0.183832 19.556175 -5.856712 0.191589 -2.147789 -84.363107 -17.852515 -1.613538 8.973523 9.963290 -5.744106 -74.424673 1.303576 -116.129552 81.928905 -115.017702 -2.241356 -14.825637 0.428694 -0.338338 0.807895 -0.148951 -16.314537 -77.637352 31.526288 109.804787 79.202373 106.277007 -16.945301 -19.919797 0.284868 -0.263820 -1.085393 -0.114121
-44.906484 50.664258 2.628762 164.134274 -5.940642 -0.838963 3.204544 5.893472 0.775150 0.125563 0.241199 -0.004172 0.221464 0.415005 -0.012784 2.978049 5.689089 0.026572 2.492561 18.810649 -0.044616 4.581048 -0.820384 -0.863671 2.228428 6.184027 0.562334 -5.883523 -11.759144 -6.944683 26.926538 -81.606770 -7.689662 1.563861 1.242011 -27.274902 -5.837121 2.869385 0.171094 19.559263 -5.850203 0.188932 -2.128668 -84.371974 -17.875446 -1.615126 8.977470 9.965314 -5.714036 -74.427566 1.269966 -116.153487 81.931892 -115.042245 -2.239715 -14.830662 0.431841 -0.340572 0.810504 -0.151236 -16.285000 -77.641833 31.497319 109.793197 79.205157 106.260090 -16.965195 -19.907843 0.291952 -0.275437 -1.080206 -0.114079
-44.908011 50.664693 2.627318 164.134540 -5.938254 -0.828411 3.203548 5.896915 0.767716 0.125581 0.241259 -0.004183 0.219741 0.416605 -0.011181 2.978237 5.685080 0.024789 2.503737 18.822901 -0.043610 4.601979 -0.806341 -0.876228 2.233030 6.189762 0.564252 -5.890265 -11.759352 -6.945884 26.927440 -81.607303 -7.695001 1.565751 1.238649 -27.268639 -5.836347 2.882622 0.169105 19.566652 -5.852151 0.185159 -2.104095 -84.378136 -17.900814 -1.615365 8.983123 9.964110 -5.668022 -74.426678 1.229228 -116.144265 81.931955 -115.034292 -2.256496 -14.846617 0.434290 -0.329878 0.824154 -0.146934 -16.238521 -77.646119 31.457976 109.788819 79.208336 106.250766 -17.013971 -19.888340 0.304330 -0.302853 -1.079061 -0.118954
